<svg id="Capa_1" data-name="Capa 1" xmlns="http://www.w3.org/2000/svg" viewBox="0 0 141.73 141.73"><defs><style>.cls-1{fill:#ec3e4f;}</style></defs><path class="cls-1" d="M71,24.06c-13.06,0-24,4.46-33.4,13.72C30,45.39,25.19,54.48,24.2,65.56a47.92,47.92,0,0,0,7.11,30.59L32,97.47l-.33,1.33-2,13.06,13.23-1.66,1.32-.66,1.32.83c9.76,5.95,19.68,8.43,30.26,7.11a46.77,46.77,0,0,0,28.27-13.39,46.11,46.11,0,0,0,13.73-33.24c0-13.23-4.63-24.14-13.73-33.07A45.34,45.34,0,0,0,71,24.06ZM99.43,93.67c-1.65,3.64-5,6-9.42,6.78-4.63.66-8.93.5-12.73-1.32a70.64,70.64,0,0,1-34.23-34.4,18.86,18.86,0,0,1-1.16-12.56c.83-4.8,3-7.94,6.62-9.76a10.43,10.43,0,0,1,4.79-.49c2,.33,3.14,1.15,3.64,2.31L61.73,56.3a3.86,3.86,0,0,1-.49,3,7.09,7.09,0,0,1-2.48,2.48,10.84,10.84,0,0,0-2.32,2.48c-.66.49-.66,1.16,0,2A98.4,98.4,0,0,0,64.88,77.3a52.78,52.78,0,0,0,10.91,8.43c1,.66,1.49.66,2.15,0a14.67,14.67,0,0,0,2.31-2.31c.83-.66,1.33-1.82,2.15-2.32,1.66-.66,2.32-.82,3.14-.49l12.24,4.63c1.16.49,2,1.82,2.15,3.8C100.43,90.86,100.43,92.35,99.43,93.67Z"/><path class="cls-1" d="M107.57,1.42H34.16A32.74,32.74,0,0,0,1.42,34.16v73.41a32.74,32.74,0,0,0,32.74,32.74h73.41a32.73,32.73,0,0,0,32.74-32.74V34.16A32.74,32.74,0,0,0,107.57,1.42Zm.79,107.3a50.14,50.14,0,0,1-31.91,15.21,50.71,50.71,0,0,1-32.9-7.28l-22.66,4,4-22.15a51.28,51.28,0,0,1-7.11-33.74A46.18,46.18,0,0,1,22.55,48,45.43,45.43,0,0,1,33.13,33.15C38.59,28.36,44,23.89,50.82,21.41a52.38,52.38,0,0,1,40,0,44.88,44.88,0,0,1,17.53,11.74c5.29,5.62,9.43,11.08,11.91,17.69a53.64,53.64,0,0,1,4.13,20C124.4,85.73,119.11,98.13,108.36,108.72Z"/></svg>