<svg id="Capa_1" data-name="Capa 1" xmlns="http://www.w3.org/2000/svg" viewBox="0 0 141.73 141.73"><defs><style>.cls-1{fill:#ec3e4f;}</style></defs><path class="cls-1" d="M108,1.42H33.77A32.35,32.35,0,0,0,1.42,33.77V108a32.35,32.35,0,0,0,32.35,32.35H108A32.35,32.35,0,0,0,140.31,108V33.77A32.35,32.35,0,0,0,108,1.42ZM80.59,124.1l0-37.64L92.45,86l2.48-14.8H80.54l-.24-12c.24-6.7,6.94-6.7,6.94-6.7h7.69V37.35S83,37,79.05,37.35C65.91,38.59,61.36,50.52,61.16,57.2c-.1,3.49,0,14,0,14H48.3V86.46H61.16v37.65a53.84,53.84,0,1,1,19.43,0Z"/></svg>