<svg id="Capa_1" data-name="Capa 1" xmlns="http://www.w3.org/2000/svg" viewBox="0 0 141.73 141.73"><defs><style>.cls-1{fill:#ec3e4f;}</style></defs><path class="cls-1" d="M107.57,1.42H34.16A32.74,32.74,0,0,0,1.42,34.16v73.41a32.74,32.74,0,0,0,32.74,32.74h73.41a32.73,32.73,0,0,0,32.74-32.74V34.16A32.74,32.74,0,0,0,107.57,1.42ZM122.25,112c0,.57-.58,1.35-1.73,2.5a22.43,22.43,0,0,1-3.67,3.09,38.88,38.88,0,0,1-10.61,5.21c-3.86,1.16-6.95,1.93-8.68,1.54-19.87-3.28-37.23-12.73-52.47-27.78-15.44-15-24.7-32.41-27.59-52.66-.39-1.74,0-4.63,1.35-8.68a56,56,0,0,1,5-10.23,38.37,38.37,0,0,1,2.89-3.66,7.53,7.53,0,0,1,2.89-2.12,38.74,38.74,0,0,1,10.81-1.93A3.21,3.21,0,0,1,43.93,19L56.47,41.81c1,1.73.19,3.85-2.32,5.78l-8.87,6.95c-2.12,1.73-2.7,3.86-1.35,5.59C48.56,70,53.57,77.3,59,82.7A84.31,84.31,0,0,0,81,97.94c2.12,1,4,.58,5.79-1.54l7.13-8.68c2.13-2.51,3.86-3.47,6-2.51L123,97.94a3.82,3.82,0,0,1,1.35,3.09A25.84,25.84,0,0,1,122.25,112Z"/></svg>