<svg id="Capa_1" data-name="Capa 1" xmlns="http://www.w3.org/2000/svg" viewBox="0 0 141.73 141.73"><defs><style>.cls-1{fill:#ec3e4f;}</style></defs><path class="cls-1" d="M95.74,25.15H46A20.87,20.87,0,0,0,25.15,46V95.74A20.87,20.87,0,0,0,46,116.59H95.74a20.87,20.87,0,0,0,20.85-20.85V46A20.87,20.87,0,0,0,95.74,25.15ZM71.22,100.47a29,29,0,1,1,29-28.95A29,29,0,0,1,71.22,100.47Zm29-51.95A6.49,6.49,0,1,1,106.71,42,6.48,6.48,0,0,1,100.22,48.52Z"/><path class="cls-1" d="M107.57,1.42H34.16A32.74,32.74,0,0,0,1.42,34.16v73.41a32.74,32.74,0,0,0,32.74,32.74h73.41a32.73,32.73,0,0,0,32.74-32.74V34.16A32.74,32.74,0,0,0,107.57,1.42Zm17.28,94.32a29.14,29.14,0,0,1-29.11,29.11H46A29.14,29.14,0,0,1,16.88,95.74V46A29.14,29.14,0,0,1,46,16.88H95.74A29.14,29.14,0,0,1,124.85,46Z"/><path class="cls-1" d="M71.22,50.18A20.69,20.69,0,1,0,91.91,70.87,20.71,20.71,0,0,0,71.22,50.18Z"/></svg>