<svg id="Capa_1" data-name="Capa 1" xmlns="http://www.w3.org/2000/svg" viewBox="0 0 141.73 141.73"><defs><style>.cls-1{fill:#ec3e4f;}</style></defs><path class="cls-1" d="M107.57,1.42H34.16A32.74,32.74,0,0,0,1.42,34.16v73.41a32.74,32.74,0,0,0,32.74,32.74h73.41a32.73,32.73,0,0,0,32.74-32.74V34.16A32.74,32.74,0,0,0,107.57,1.42Zm8.64,46.74C114,118.81,50,117.7,50,117.7c-26.15.28-35.88-10.85-35.88-10.85,17,3.06,32.54-9.18,32.54-9.18-19.19-3.34-20-17.52-20-17.52a18.6,18.6,0,0,0,8.34,0c-17.8-5.84-16.89-23.09-16.89-23.09,7.87,3.89,9.66,2.5,9.66,2.5C11.06,46.49,21.07,29,21.07,29,43.33,53.44,69.2,53.16,69.2,53.16,66.14,25.62,90.34,24.23,90.34,24.23c11.13-1.67,19.47,7.24,19.47,7.24,9.74-.56,14.47-5.57,14.47-5.57-.56,6.4-8.91,13.08-8.91,13.08,4.18,0,12.24-3.34,12.24-3.34C127.06,38.7,116.21,48.16,116.21,48.16Z"/></svg>