<svg id="Capa_1" data-name="Capa 1" xmlns="http://www.w3.org/2000/svg" viewBox="0 0 141.73 141.73"><defs><style>.cls-1{fill:#ec3e4f;}</style></defs><path class="cls-1" d="M112.25,41.44,78.1,73.68a9.13,9.13,0,0,1-14.66,0L29.29,41.44c-1.54-1.55-2.7-2.13-3.85-1.16-.78.77-.58,1.94.57,2.91L64,84.36a7.8,7.8,0,0,0,13.5,0l38.2-41.17c1-1,1.35-2.14.38-2.91C114.75,39.7,113.79,39.89,112.25,41.44Z"/><path class="cls-1" d="M107.57,1.42H34.16A32.74,32.74,0,0,0,1.42,34.16v73.41a32.74,32.74,0,0,0,32.74,32.74h73.41a32.73,32.73,0,0,0,32.74-32.74V34.16A32.74,32.74,0,0,0,107.57,1.42ZM123.63,105a7.57,7.57,0,0,1-2.7,6.41,7.9,7.9,0,0,1-6.37,2.91H27.37a8.74,8.74,0,0,1-6.76-2.91c-2.12-1.75-2.51-3.69-2.51-6.41V36.59A8.46,8.46,0,0,1,20.61,30a9.14,9.14,0,0,1,6.76-2.53h87.19A8.85,8.85,0,0,1,120.93,30a8.67,8.67,0,0,1,2.7,6.6Z"/></svg>